<svg xmlns="http://www.w3.org/2000/svg" width="9.876" height="39.505" viewBox="0 0 9.876 39.505"><defs><style>.a{fill:#b2b2b2;}</style></defs><path class="a" d="M48.023,48.023a4.7,4.7,0,0,0,1.457-3.481,4.941,4.941,0,1,0-4.938,4.938,4.7,4.7,0,0,0,3.481-1.457m0-14.814a4.7,4.7,0,0,0,1.457-3.481,4.941,4.941,0,1,0-4.938,4.938,4.7,4.7,0,0,0,3.481-1.457m1.457-18.3a4.938,4.938,0,1,0-9.876,0,4.931,4.931,0,0,0,4.938,4.938,4.7,4.7,0,0,0,3.481-1.457A4.7,4.7,0,0,0,49.48,14.913Z" transform="translate(-39.603 -9.975)"/></svg>