<svg xmlns="http://www.w3.org/2000/svg" width="473.918" height="46.507" viewBox="0 0 473.918 46.507"><defs><style>.a{fill:#fbb116;opacity:0.75;}</style></defs><g transform="translate(-247.217 -587.207)"><path class="a" d="M720.713,600.724c.96-4.236.242-4.994-1.761-6.633s-7.341-1.664-10.857-1.867-18.489-.924-22.787-1.6-52.047-.738-61.92-1.785-40-1.927-51.391-1.534-70.905.588-95.82.3-130.057,4.432-138.049,5.594-39.589,4.115-45.759,5.095-36.427.667-40.645.9a8.225,8.225,0,0,0-2.421,4.545c-.294,2.6.131,5.967-.48,9.984s-1.608,16.255-1.608,16.255a13.028,13.028,0,0,0,8.652,3.743c5.055-.044,17.961-.681,23.081-1.006s38.128-3.23,47.238-4.137,63.16-4.982,68.5-4.958,64.111-.019,67.126-.227,47.574-1.685,55.427-2.279,107.478-1.472,113.728-1.539,59.61,2.819,64.383,2.714,12.332,1.9,13.741,2.224,2.673.629,3.927-.3c1.657-1.223,3-4.067,4.268-7.046S719.754,604.958,720.713,600.724Zm-26.034-2.338c-3.2-.28-3.624-.377-5.948-.608s-4.286-.078-6.183-.213-3.907-.439-5.494-.651-4.991-.24-6.325-.246-2.841.1-4.6,0a26.172,26.172,0,0,0-3.755.19c-1.649.07-1.409-.321-3.072-.846s-1.193.026-3.407-.029a34.451,34.451,0,0,1-7.044-1c-.956-.366,4.286.079,5.62.088s3.3-.144,5.2-.011a10.951,10.951,0,0,1,2.854.5,2.752,2.752,0,0,0,2.105-.116c.975-.376,1.68-.213,3.654.232s3.33-.284,4.839-.385,4.016.611,5.774.712,3.83.127,5.132.272a40.4,40.4,0,0,1,8.1.945,135.614,135.614,0,0,0,14.153,1.722S697.881,598.666,694.679,598.387Z"/><path class="a" d="M597.467,595.841a3.615,3.615,0,0,0-2.525-3.064,5.305,5.305,0,0,0-4.1,1.146c-.673.681-2,1.939-1.759,2.719s-.349,2-.627,2.767a61.068,61.068,0,0,0-2.428,5.68c-.313,1.383.116,1.792-.459,4.776s-1.953,7.243-1.378,8.828,3.427,4.906,4.951,3.822c2.1-1.5,3.069-3.459,4.2-6.63.443-1.24,1.545-4.532,2.015-6.606S597.648,597.336,597.467,595.841Z" transform="translate(123.63 2.009)"/></g></svg>