<svg xmlns="http://www.w3.org/2000/svg" width="31.539" height="21.901" viewBox="0 0 31.539 21.901"><defs><style>.a{fill:#17365d;stroke:#fff8f5;stroke-width:0.4px;}</style></defs><path class="a" d="M11.336,973.362A3.354,3.354,0,0,0,8,976.7v14.828a3.354,3.354,0,0,0,3.336,3.336H35.8a3.354,3.354,0,0,0,3.336-3.336V976.7a3.354,3.354,0,0,0-3.336-3.336Zm.243,2.224H35.571l-11.318,10.1a.925.925,0,0,1-1.344,0Zm-1.355,1.772,7.623,6.8-7.623,7.321Zm26.691,0v14.11l-7.6-7.321Zm-9.268,8.283,7.264,7H12.228l7.287-6.985,1.911,1.7a3.261,3.261,0,0,0,4.309,0Z" transform="translate(-7.8 -973.162)"/></svg>