<svg xmlns="http://www.w3.org/2000/svg" xmlns:xlink="http://www.w3.org/1999/xlink" width="127.51" height="33.505" viewBox="0 0 127.51 33.505"><defs><style>.a{fill:none;}.b{fill:#17365d;}.c{clip-path:url(#a);}.d{clip-path:url(#b);}.e{fill:#bf5628;}.f{fill:#ec9e12;}.g{clip-path:url(#c);}.h{clip-path:url(#d);}.i{clip-path:url(#e);}</style><clipPath id="a"><rect class="a" width="11.258" height="27.789"/></clipPath><clipPath id="b"><rect class="a" width="11.258" height="27.789" transform="translate(11.258 27.789) rotate(-180)"/></clipPath><clipPath id="c"><rect class="a" width="12.685" height="23.412"/></clipPath><clipPath id="d"><rect class="a" width="12.685" height="23.412" transform="translate(12.685 23.412) rotate(-180)"/></clipPath><clipPath id="e"><rect class="a" width="12.854" height="22.46"/></clipPath></defs><path class="b" d="M3577.651,800.4h3.972v9.415c0,2.7,1.4,3.806,3.339,3.806,1.9,0,3.339-1.135,3.339-3.806V800.4h3.972v9.415c0,2.67,1.4,3.806,3.305,3.806,1.936,0,3.339-1.1,3.339-3.806V800.4h3.973v9.415c0,5.175-3,7.511-6.911,7.511a6.347,6.347,0,0,1-5.709-2.971,6.422,6.422,0,0,1-5.708,2.971c-3.906,0-6.91-2.337-6.91-7.511Z" transform="translate(-3572.277 -791.983)"/><g transform="translate(41.765 5.717)"><g class="c"><path class="b" d="M3710.77,808.237a8.709,8.709,0,1,1,8.707,8.51A8.305,8.305,0,0,1,3710.77,808.237Zm13.453,0a4.764,4.764,0,1,0-4.747,4.877A4.589,4.589,0,0,0,3724.223,808.237Z" transform="translate(-3719.477 -797.17)"/></g></g><g transform="translate(30.49 5.717)"><g class="d" transform="translate(0 0)"><path class="b" d="M3719.4,816.747a8.513,8.513,0,1,1,8.707-8.51A8.306,8.306,0,0,1,3719.4,816.747Zm0-3.633a4.879,4.879,0,1,0-4.746-4.877A4.614,4.614,0,0,0,3719.4,813.114Z" transform="translate(-3708.139 -797.17)"/></g></g><path class="b" d="M4068.344,813h-3.895v-8.412c0-3.077-1.637-4.55-4.092-4.55s-4.092,1.473-4.092,4.55V813h-3.895v-8.412c0-5.434,3.208-8.183,7.987-8.183s7.987,2.782,7.987,8.183Z" transform="translate(-3948.271 -788.826)"/><path class="b" d="M3951,803.683a8.488,8.488,0,0,1,8.92-8.853c5.177,0,8.785,3.508,8.785,8.819v8.118h-3.641v-3.24a5.994,5.994,0,0,1-5.846,3.675A8.108,8.108,0,0,1,3951,803.683Zm13.73-.167a4.862,4.862,0,1,0-4.844,4.978A4.683,4.683,0,0,0,3964.726,803.516Z" transform="translate(-3867.979 -787.576)"/><path class="b" d="M3806.765,767.23c0-4.877,2.94-7.283,7.25-7.283s7.216,2.439,7.216,7.316h-3.942c0-2.606-1.336-3.608-3.273-3.608s-3.274,1.035-3.274,3.574V769.9h8.486v3.608h-8.486V784.1h-3.975Z" transform="translate(-3753.744 -759.948)"/><rect class="b" width="3.975" height="8.899" transform="translate(67.752 15.254)"/><path class="e" d="M3946.633,822.871v1.646h.107v-.1A11.267,11.267,0,0,0,3946.633,822.871Z" transform="translate(-3864.523 -809.785)"/><path class="b" d="M3884.845,794.645c-4.31,0-7.25,2.372-7.25,7.349v.687h3.976v-.687c0-2.672,1.336-3.641,3.274-3.641s3.274.969,3.274,3.641v.167h3.942v-.1C3892.061,797.017,3889.154,794.645,3884.845,794.645Z" transform="translate(-3809.844 -787.429)"/><rect class="b" width="3.975" height="10.597" transform="translate(53.022 13.537)"/><path class="f" d="M3814.015,759.948c-4.31,0-7.25,2.412-7.25,7.3v2.633h0v3.626h3.973V769.82h0v-2.568c0-2.547,1.336-3.586,3.274-3.586s3.273,1.006,3.273,3.619h3.942C3821.23,762.394,3818.324,759.948,3814.015,759.948Z" transform="translate(-3753.744 -759.948)"/><path class="b" d="M4139.561,855.433a2.639,2.639,0,1,1,2.639,2.639A2.583,2.583,0,0,1,4139.561,855.433Z" transform="translate(-4017.329 -833.485)"/><g transform="translate(0 4.131)"><g class="g"><path class="f" d="M3577.651,800.4h3.972v9.415c0,2.7,1.4,3.806,3.339,3.806,1.9,0,3.339-1.135,3.339-3.806V800.4h3.972v9.415c0,2.67,1.4,3.806,3.305,3.806,1.936,0,3.339-1.1,3.339-3.806V800.4h3.973v9.415c0,5.175-3,7.511-6.911,7.511a6.347,6.347,0,0,1-5.709-2.971,6.422,6.422,0,0,1-5.708,2.971c-3.906,0-6.91-2.337-6.91-7.511Z" transform="translate(-3572.277 -796.115)"/></g></g><rect class="a" width="12.685" height="23.412" transform="translate(0 4.131)"/><g transform="translate(23.301 4.131)"><g class="h" transform="translate(0 0)"><path class="e" d="M3602.891,809.81c0,5.175-3,7.511-6.911,7.511a6.423,6.423,0,0,1-5.708-2.971,6.347,6.347,0,0,1-5.708,2.971c-3.906,0-6.911-2.337-6.911-7.511V800.4h3.973v9.415c0,2.7,1.4,3.806,3.338,3.806,1.9,0,3.305-1.135,3.305-3.806V800.4h3.973v9.415c0,2.67,1.436,3.806,3.339,3.806,1.936,0,3.338-1.1,3.338-3.806V800.4h3.973Z" transform="translate(-3595.58 -796.115)"/></g></g><g transform="translate(91.869 4.827)"><g class="i"><path class="e" d="M3951,803.683a8.488,8.488,0,0,1,8.92-8.853c5.177,0,8.785,3.508,8.785,8.819v8.118h-3.641v-3.24a5.994,5.994,0,0,1-5.846,3.675A8.108,8.108,0,0,1,3951,803.683Zm13.73-.167a4.862,4.862,0,1,0-4.844,4.978A4.683,4.683,0,0,0,3964.726,803.516Z" transform="translate(-3959.848 -792.403)"/></g></g></svg>